<svg width="36" height="37" viewBox="0 0 36 37" fill="none" xmlns="http://www.w3.org/2000/svg">
<mask id="mask0_1_251" style="mask-type:alpha" maskUnits="userSpaceOnUse" x="0" y="0" width="36" height="37">
<rect y="0.5" width="36" height="36" fill="#D6377F"/>
</mask>
<g mask="url(#mask0_1_251)">
<path d="M12 27.5C11.575 27.5 11.2185 27.356 10.9305 27.068C10.6435 26.781 10.5 26.425 10.5 26C10.5 25.575 10.6435 25.219 10.9305 24.932C11.2185 24.644 11.575 24.5 12 24.5C12.425 24.5 12.7815 24.644 13.0695 24.932C13.3565 25.219 13.5 25.575 13.5 26C13.5 26.425 13.3565 26.781 13.0695 27.068C12.7815 27.356 12.425 27.5 12 27.5ZM12 21.5C11.575 21.5 11.2185 21.356 10.9305 21.068C10.6435 20.781 10.5 20.425 10.5 20C10.5 19.575 10.6435 19.2185 10.9305 18.9305C11.2185 18.6435 11.575 18.5 12 18.5C12.425 18.5 12.7815 18.6435 13.0695 18.9305C13.3565 19.2185 13.5 19.575 13.5 20C13.5 20.425 13.3565 20.781 13.0695 21.068C12.7815 21.356 12.425 21.5 12 21.5ZM18 27.5C17.575 27.5 17.219 27.356 16.932 27.068C16.644 26.781 16.5 26.425 16.5 26C16.5 25.575 16.644 25.219 16.932 24.932C17.219 24.644 17.575 24.5 18 24.5C18.425 24.5 18.7815 24.644 19.0695 24.932C19.3565 25.219 19.5 25.575 19.5 26C19.5 26.425 19.3565 26.781 19.0695 27.068C18.7815 27.356 18.425 27.5 18 27.5ZM18 21.5C17.575 21.5 17.219 21.356 16.932 21.068C16.644 20.781 16.5 20.425 16.5 20C16.5 19.575 16.644 19.2185 16.932 18.9305C17.219 18.6435 17.575 18.5 18 18.5C18.425 18.5 18.7815 18.6435 19.0695 18.9305C19.3565 19.2185 19.5 19.575 19.5 20C19.5 20.425 19.3565 20.781 19.0695 21.068C18.7815 21.356 18.425 21.5 18 21.5ZM24 27.5C23.575 27.5 23.219 27.356 22.932 27.068C22.644 26.781 22.5 26.425 22.5 26C22.5 25.575 22.644 25.219 22.932 24.932C23.219 24.644 23.575 24.5 24 24.5C24.425 24.5 24.781 24.644 25.068 24.932C25.356 25.219 25.5 25.575 25.5 26C25.5 26.425 25.356 26.781 25.068 27.068C24.781 27.356 24.425 27.5 24 27.5ZM24 21.5C23.575 21.5 23.219 21.356 22.932 21.068C22.644 20.781 22.5 20.425 22.5 20C22.5 19.575 22.644 19.2185 22.932 18.9305C23.219 18.6435 23.575 18.5 24 18.5C24.425 18.5 24.781 18.6435 25.068 18.9305C25.356 19.2185 25.5 19.575 25.5 20C25.5 20.425 25.356 20.781 25.068 21.068C24.781 21.356 24.425 21.5 24 21.5ZM7.5 33.5C6.675 33.5 5.9685 33.2065 5.3805 32.6195C4.7935 32.0315 4.5 31.325 4.5 30.5V9.5C4.5 8.675 4.7935 7.969 5.3805 7.382C5.9685 6.794 6.675 6.5 7.5 6.5H9V3.5H12V6.5H24V3.5H27V6.5H28.5C29.325 6.5 30.0315 6.794 30.6195 7.382C31.2065 7.969 31.5 8.675 31.5 9.5V30.5C31.5 31.325 31.2065 32.0315 30.6195 32.6195C30.0315 33.2065 29.325 33.5 28.5 33.5H7.5ZM7.5 30.5H28.5V15.5H7.5V30.5ZM7.5 12.5H28.5V9.5H7.5V12.5Z" fill="#D6377F"/>
</g>
</svg>
