<svg width="36" height="37" viewBox="0 0 36 37" fill="none" xmlns="http://www.w3.org/2000/svg">
<mask id="mask0_1_260" style="mask-type:alpha" maskUnits="userSpaceOnUse" x="0" y="0" width="36" height="37">
<rect y="0.5" width="36" height="36" fill="#D6377F"/>
</mask>
<g mask="url(#mask0_1_260)">
<path d="M18 25.2125C20.475 23.2125 22.344 21.2875 23.607 19.4375C24.869 17.5875 25.5 15.85 25.5 14.225C25.5 12.825 25.244 11.631 24.732 10.643C24.219 9.656 23.5875 8.856 22.8375 8.243C22.0875 7.631 21.275 7.1875 20.4 6.9125C19.525 6.6375 18.725 6.5 18 6.5C17.275 6.5 16.475 6.6375 15.6 6.9125C14.725 7.1875 13.9125 7.631 13.1625 8.243C12.4125 8.856 11.7815 9.656 11.2695 10.643C10.7565 11.631 10.5 12.825 10.5 14.225C10.5 15.85 11.131 17.5875 12.393 19.4375C13.656 21.2875 15.525 23.2125 18 25.2125ZM18 29C14.475 26.4 11.8435 23.875 10.1055 21.425C8.3685 18.975 7.5 16.575 7.5 14.225C7.5 12.45 7.819 10.8935 8.457 9.5555C9.094 8.2185 9.9125 7.1 10.9125 6.2C11.9125 5.3 13.0375 4.625 14.2875 4.175C15.5375 3.725 16.775 3.5 18 3.5C19.225 3.5 20.4625 3.725 21.7125 4.175C22.9625 4.625 24.0875 5.3 25.0875 6.2C26.0875 7.1 26.9065 8.2185 27.5445 9.5555C28.1815 10.8935 28.5 12.45 28.5 14.225C28.5 16.575 27.631 18.975 25.893 21.425C24.156 23.875 21.525 26.4 18 29ZM18 17C18.825 17 19.5315 16.706 20.1195 16.118C20.7065 15.531 21 14.825 21 14C21 13.175 20.7065 12.4685 20.1195 11.8805C19.5315 11.2935 18.825 11 18 11C17.175 11 16.469 11.2935 15.882 11.8805C15.294 12.4685 15 13.175 15 14C15 14.825 15.294 15.531 15.882 16.118C16.469 16.706 17.175 17 18 17ZM7.5 33.5V30.5H28.5V33.5H7.5Z" fill="#D6377F"/>
</g>
</svg>
